<svg width="24" height="24" viewBox="0 0 24 24" fill="none" xmlns="http://www.w3.org/2000/svg">
<mask id="mask0_100_1770" style="mask-type:alpha" maskUnits="userSpaceOnUse" x="0" y="0" width="24" height="24">
<circle cx="12" cy="12" r="12" fill="#D9D9D9"/>
</mask>
<g mask="url(#mask0_100_1770)">
<path d="M12.5742 0.0052657C12.5742 0.0052657 14.3591 -0.0789855 16.6111 0.426522C19.7806 1.15108 20.965 2.1284 20.965 2.1284V10.6715H12.5742V0.0052657Z" fill="#ED1C24"/>
<path d="M13.1914 0.814278C13.1914 0.814278 14.7261 0.746877 16.6611 1.18498C19.3969 1.79159 20.4145 2.6341 20.4145 2.6341V10.0819H13.1914V0.814278Z" fill="white"/>
<path d="M3 11.6992C3 13.8897 3 15.1367 3 15.1367C3 15.3557 3.01668 15.6085 3.01668 15.8949L3.05004 17.3777C3.05004 20.6804 9.13878 23.1237 11.4408 23.983V11.6992H3Z" fill="#ED1C24"/>
<path d="M20.9994 11.6992H12.5586V23.9999C14.8273 23.1574 20.9994 20.6804 20.9994 17.344L20.9827 15.4063C20.9827 15.322 20.9827 15.2209 20.9827 15.1367C20.9994 15.1535 20.9994 13.8897 20.9994 11.6992Z" fill="#21409A"/>
<path d="M5.24907 18.5236C5.28243 18.5573 5.33247 18.5742 5.36584 18.591C5.38252 18.591 5.3992 18.591 5.43256 18.591C5.44925 18.591 5.46593 18.591 5.48261 18.591C5.53265 18.591 5.54933 18.6247 5.56602 18.6753C5.5827 18.7258 5.59938 18.7595 5.63274 18.8101L5.64942 18.8269C5.68279 18.8438 5.71615 18.8775 5.74951 18.8943C5.76619 18.9112 5.78287 18.9112 5.79956 18.928C5.91633 18.9786 6.04978 18.9954 6.16655 18.9449C6.23327 18.928 6.26664 18.8775 6.31668 18.8269C6.36673 18.7595 6.36673 18.6921 6.36673 18.6079C6.35004 18.5404 6.33336 18.4899 6.28332 18.4393C6.23327 18.3888 6.18323 18.3719 6.1165 18.3551C6.0331 18.3382 5.96637 18.3382 5.88296 18.3382C5.88296 18.3382 5.88296 18.3382 5.86628 18.3382C5.8496 18.3382 5.83292 18.3382 5.83292 18.3214V18.3045C5.83292 18.2877 5.83292 18.2877 5.81624 18.2708C5.81624 18.254 5.79956 18.2371 5.78287 18.2371C5.76619 18.2371 5.74951 18.2371 5.73283 18.2371C5.69947 18.2371 5.69947 18.2203 5.68279 18.2034C5.6661 18.1192 5.64942 18.0349 5.59938 17.9507C5.5827 17.9001 5.53265 17.8664 5.49929 17.8327C5.43256 17.7822 5.34916 17.7822 5.26575 17.799C5.2157 17.8159 5.18234 17.8327 5.14898 17.8664C5.08225 17.917 5.04889 18.0012 5.04889 18.0855C5.04889 18.1529 5.04889 18.2203 5.08225 18.2877C5.09893 18.3382 5.1323 18.3888 5.18234 18.4393C5.18234 18.4562 5.19902 18.4562 5.19902 18.473C5.19902 18.4899 5.2157 18.5067 5.24907 18.5236C5.23239 18.5236 5.23239 18.5236 5.24907 18.5236C5.24907 18.5236 5.23239 18.5236 5.24907 18.5236ZM8.46859 15.1199C8.40186 15.221 8.31846 15.3052 8.25173 15.4063C8.06823 15.6422 7.90142 15.8613 7.71792 16.0972C7.53443 16.3499 7.33425 16.5858 7.15075 16.8386C6.98394 17.0576 7.33425 16.5858 7.16744 16.8049C7.10071 16.8891 7.05067 16.9565 6.98394 17.0408C6.98394 17.0576 6.96726 17.0576 6.96726 17.0745C6.96726 17.0745 6.96726 17.0913 6.98394 17.0913C7.00062 17.1082 7.0173 17.1082 7.03398 17.125C7.05067 17.1419 7.06735 17.1756 7.05067 17.1924C7.03398 17.2261 7.0173 17.243 6.98394 17.2261C6.96726 17.2261 6.96726 17.2261 6.95058 17.2093C6.9339 17.2093 6.93389 17.1924 6.91721 17.1756C6.91721 17.1756 6.90053 17.1756 6.90053 17.1587L6.88385 17.1756C6.90053 17.1924 6.90053 17.1924 6.91721 17.2093L6.9339 17.2261C6.95058 17.243 6.95058 17.2598 6.95058 17.2767C6.9339 17.3272 6.90053 17.3441 6.85049 17.3104C6.83381 17.2935 6.81712 17.2935 6.81712 17.2767C6.81712 17.2767 6.80044 17.2767 6.80044 17.2598C6.78376 17.2767 6.78376 17.2767 6.78376 17.2935C6.78376 17.3104 6.80044 17.3441 6.80044 17.3609C6.81712 17.3946 6.81712 17.4115 6.80044 17.4283C6.78376 17.462 6.76708 17.4789 6.7504 17.4957C6.73372 17.5126 6.70035 17.5294 6.68367 17.5294C6.65031 17.5463 6.60027 17.5631 6.5669 17.58C6.55022 17.58 6.53354 17.5968 6.53354 17.6137C6.51686 17.6474 6.4835 17.6811 6.46681 17.7148C6.46681 17.7148 6.46681 17.7316 6.45013 17.7316C6.45013 17.7316 6.45013 17.7485 6.46681 17.7485C6.4835 17.7653 6.50018 17.799 6.53354 17.8159C6.60027 17.9001 6.65031 18.0012 6.68367 18.1023C6.73372 18.2371 6.7504 18.3888 6.71704 18.5404C6.70035 18.6247 6.66699 18.709 6.61695 18.7932C6.58358 18.8438 6.55022 18.8943 6.50018 18.928C6.45013 18.9786 6.38341 19.0291 6.31668 19.046C6.21659 19.0965 6.1165 19.1134 5.99973 19.1302C5.93301 19.1302 5.88296 19.1302 5.81624 19.1302C5.76619 19.1302 5.69947 19.1134 5.64942 19.0965C5.61606 19.0797 5.56602 19.0628 5.53265 19.0628C5.46593 19.0291 5.3992 18.9954 5.34916 18.9617C5.24907 18.8943 5.16566 18.8269 5.09893 18.7427C5.06557 18.709 5.03221 18.6753 5.01553 18.6247C4.9488 18.5236 4.89876 18.4225 4.86539 18.3214C4.84871 18.2371 4.83203 18.1529 4.83203 18.0686C4.83203 17.9507 4.84871 17.8496 4.89876 17.7316C4.91544 17.6811 4.9488 17.6474 4.98216 17.5968C4.99885 17.58 5.01553 17.5631 5.03221 17.5463C5.06557 17.5126 5.09893 17.4789 5.1323 17.462C5.2157 17.4115 5.29911 17.3609 5.3992 17.3441C5.49929 17.3272 5.61606 17.3104 5.71615 17.3272C5.79956 17.3441 5.86628 17.3609 5.94969 17.3778C5.99973 17.3946 6.0331 17.4115 6.08314 17.4283H6.09982C6.09982 17.4283 6.09982 17.4283 6.1165 17.4283C6.14987 17.3946 6.16655 17.3609 6.19991 17.3104L6.21659 17.2935C6.21659 17.2598 6.21659 17.243 6.23327 17.2093C6.24996 17.1587 6.24996 17.1082 6.26664 17.0745C6.26664 17.0576 6.28332 17.0408 6.3 17.0239C6.33336 16.9902 6.35004 16.9734 6.40009 16.9902C6.41677 16.9902 6.45013 16.9902 6.46681 16.9902C6.4835 16.9902 6.4835 16.9902 6.4835 16.9734L6.46681 16.9565L6.45013 16.9397C6.43345 16.9228 6.43345 16.8891 6.43345 16.8723C6.45013 16.8554 6.46681 16.8386 6.50018 16.8386C6.51686 16.8386 6.51686 16.8386 6.53354 16.8554C6.55022 16.8723 6.55022 16.8723 6.5669 16.8891C6.5669 16.8891 6.5669 16.8891 6.58358 16.8723C6.58358 16.8723 6.58358 16.8723 6.58358 16.8554C6.5669 16.8386 6.5669 16.8386 6.55022 16.8217C6.51686 16.788 6.51686 16.7375 6.5669 16.7206C6.58358 16.7038 6.60027 16.7206 6.61695 16.7206C6.63363 16.7206 6.63363 16.7375 6.65031 16.7375C6.65031 16.7375 6.66699 16.7375 6.66699 16.7543L6.68367 16.7375C6.73372 16.6701 6.78376 16.6195 6.81712 16.5521C6.93389 16.4173 6.50018 16.9565 6.61695 16.8217C6.66699 16.7543 6.71704 16.6869 6.76708 16.6195C6.88385 16.4847 6.98394 16.3331 7.10071 16.1983C7.15075 16.1309 7.2008 16.0635 7.26752 15.9961C7.36761 15.8613 7.48438 15.7096 7.60115 15.5748C7.6512 15.5074 7.70124 15.44 7.76797 15.3726C7.88474 15.2378 7.98483 15.0862 8.1016 14.9513C8.15164 14.8839 8.20169 14.8165 8.25173 14.7491C8.35182 14.6143 8.46859 14.4627 8.56868 14.3279C8.65209 14.2099 8.75217 14.092 8.83558 13.974C8.91899 13.8729 9.0024 13.7718 9.06912 13.6539C9.13585 13.5696 9.20257 13.4854 9.2693 13.4011C9.28598 13.3843 9.28598 13.3843 9.30266 13.3843H9.31934C9.36939 13.4011 9.40275 13.418 9.4528 13.4517C9.51952 13.5022 9.55288 13.5528 9.60293 13.6202C9.60293 13.6202 9.61961 13.637 9.61961 13.6539C9.61961 13.6707 9.60293 13.6707 9.60293 13.6876C9.55288 13.755 9.48616 13.8392 9.43611 13.9066C9.43611 13.9235 9.41943 13.9235 9.41943 13.9403C9.41943 13.9572 9.43611 13.9572 9.4528 13.9572C9.58625 14.0583 9.70302 14.1594 9.83647 14.2605C9.93656 14.3447 10.0533 14.429 10.1534 14.5132C10.1701 14.5132 10.1701 14.5301 10.1868 14.5301V14.5469C10.1534 14.5806 10.1034 14.6649 10.0867 14.6817C10.07 14.6817 10.07 14.6649 10.0533 14.6649C9.95324 14.5975 9.86983 14.5132 9.76974 14.4458C9.75306 14.429 9.7197 14.4121 9.70302 14.3953C9.70302 14.3953 9.68634 14.3953 9.68634 14.3784C9.66965 14.3953 9.65297 14.4121 9.63629 14.4458C9.51952 14.4795 9.50284 14.4964 9.50284 14.5132C9.51952 14.5301 9.5362 14.5301 9.55288 14.5469C9.60293 14.5806 9.65297 14.6312 9.70302 14.6649L9.7197 14.6817C9.7197 14.6986 9.70302 14.6986 9.70302 14.7154C9.68634 14.7491 9.65297 14.7828 9.63629 14.8165C9.63629 14.8165 9.61961 14.8334 9.61961 14.8502C9.61961 14.8671 9.63629 14.8671 9.63629 14.8671C9.66965 14.9008 9.70302 14.9176 9.73638 14.9513L9.75306 14.9682C9.75306 14.9682 9.75306 14.985 9.73638 14.985C9.68634 15.0525 9.63629 15.1199 9.58625 15.1873C9.58625 15.1873 9.58625 15.1873 9.56957 15.1873C9.55288 15.1873 9.55288 15.1704 9.5362 15.1704C9.50284 15.1367 9.46948 15.1199 9.43611 15.0862C9.43611 15.0862 9.41943 15.0693 9.40275 15.0862C9.38607 15.103 9.36939 15.1199 9.36939 15.1367C9.35271 15.1536 9.33603 15.1704 9.31934 15.1873C9.30266 15.2041 9.30266 15.221 9.2693 15.2378C9.25262 15.2378 9.25262 15.221 9.23594 15.221C9.18589 15.1873 9.13585 15.1367 9.0858 15.103C9.06912 15.103 9.06912 15.0862 9.05244 15.0862C9.01908 15.1199 9.0024 15.1536 8.96903 15.1873C8.96903 15.1873 8.96903 15.1873 8.96903 15.2041L8.98571 15.221C9.01908 15.2378 9.05244 15.2715 9.06912 15.2884C9.15253 15.3558 9.23594 15.4232 9.31934 15.4906L9.33602 15.5074C9.30266 15.558 9.2693 15.5917 9.23594 15.6422C9.23594 15.6422 9.23594 15.6422 9.21925 15.6591C9.20257 15.6591 9.20257 15.6422 9.20257 15.6422C9.05244 15.5243 8.88563 15.3895 8.73549 15.2715C8.65209 15.2041 8.58536 15.1536 8.50195 15.0862C8.48527 15.0862 8.48527 15.0693 8.46859 15.0693C8.48527 15.103 8.48527 15.103 8.46859 15.1199Z" fill="white"/>
<path d="M17.2126 4.50446C17.3293 4.47076 17.2626 4.33596 17.6296 4.28541C17.8298 4.25171 17.8131 4.0495 18.2802 4.1506C18.497 4.1843 18.5638 4.33596 18.6138 4.50446C18.397 4.40336 18.1301 4.45391 18.2468 4.45391C18.447 4.43706 18.5304 4.70666 18.5471 4.79091C18.3302 4.57186 18.0967 4.68981 18.0967 4.72351C18.3135 4.68981 18.447 4.87516 18.447 4.92571C18.1801 4.82461 17.6963 5.24587 17.5128 4.85831C17.4461 4.72351 17.0791 4.62241 17.2126 4.50446Z" fill="#ED1C24"/>
<path d="M15.1941 3.93149H15.4443L15.5944 3.57764L15.7946 3.96519H16.0448L16.3951 3.74614L16.0448 4.2348C15.7779 4.18425 15.461 4.18425 15.094 4.2348L14.8438 3.74614L15.1941 3.93149Z" fill="#ED1C24"/>
<path d="M19.6818 8.46446C19.5317 8.56556 18.9144 8.51501 18.9144 8.51501C18.9144 8.51501 18.7977 8.09375 19.0813 8.09375C19.3648 8.09375 19.8319 8.3802 19.6818 8.46446Z" fill="#ED1C24"/>
<path d="M17.3454 8.24522C17.1952 8.32947 16.5614 8.29577 16.5614 8.29577C16.5614 8.29577 16.4613 7.87451 16.7282 7.87451C17.0118 7.87451 17.4788 8.16097 17.3454 8.24522Z" fill="#ED1C24"/>
<path d="M14.9289 8.36338C14.7788 8.44763 14.1449 8.41393 14.1449 8.41393C14.1449 8.41393 14.0281 7.99268 14.3117 7.99268C14.612 7.99268 15.0791 8.27913 14.9289 8.36338Z" fill="#ED1C24"/>
<path d="M13.6433 5.44788C13.6433 5.44788 14.0603 5.32993 14.0603 5.61639C14.0603 5.90284 13.7768 6.37465 13.6934 6.223C13.6099 6.08819 13.6433 5.44788 13.6433 5.44788Z" fill="#ED1C24"/>
<path d="M19.4172 7.18377C19.4505 6.99841 19.2003 6.71196 19.1336 6.66141C19.1002 6.62771 19.1002 6.56031 19.1336 6.50976C19.0001 6.39181 18.85 6.34125 18.85 6.34125L18.8667 6.2907C18.8667 6.2907 19.0168 6.34125 19.1669 6.45921C19.1836 6.44236 19.1836 6.42551 19.1836 6.42551C19.7675 6.27385 20.0344 5.61669 19.7174 5.27969C19.4005 4.94269 18.9834 4.92584 18.483 5.12804C17.9825 5.31339 17.6156 5.33024 17.4654 5.27969C17.1318 5.16174 17.1652 4.57198 17.1652 4.57198C16.6814 5.51559 17.5155 5.58299 17.8491 5.51559C18.2161 5.46504 18.4496 5.33024 18.9668 5.39764C19.3504 5.44819 19.4005 5.7515 19.2503 5.92C19.0835 6.1222 18.7833 6.00425 18.7833 6.00425C18.5497 5.8189 17.4487 5.93685 17.1652 5.97055C16.8983 5.9874 16.6814 5.7515 16.6814 5.7515L16.5146 5.38079C16.5479 5.6504 16.5313 5.92 16.3978 6.0885C16.4812 5.7178 16.281 5.59984 16.4145 5.16174L16.1809 4.58883C15.9641 4.20128 15.0967 4.45403 15.0967 4.45403C15.0967 4.45403 14.6296 4.79103 14.396 4.90899C14.3293 4.94269 14.5128 5.73465 14.6463 5.66725C14.713 5.63354 15.13 5.53244 15.13 5.53244V5.90315L14.9632 6.34125L14.0457 6.1896L13.8789 6.34125L13.9456 6.44236L13.9957 6.49291C14.3794 6.56031 15.2635 7.26802 15.2635 7.26802C15.1133 7.35227 14.6463 7.90833 14.6463 7.90833L15.0466 8.16108L15.814 7.31857C16.7314 7.65557 17.382 6.91416 17.4821 6.99841C17.5822 7.08267 17.4487 7.20062 17.4988 7.41967C17.5321 7.55447 17.4988 7.79038 17.4988 7.79038L17.2652 7.89148L17.4821 8.07683C17.4821 8.07683 17.6656 8.07683 17.8491 7.95888C17.9825 7.87463 17.9992 7.48707 17.9492 7.41967C17.9158 7.36912 18.0993 7.21747 18.1327 7.18377C17.8825 6.79621 17.4321 6.84676 17.4321 6.86361V6.81306C17.4321 6.81306 17.9659 6.74566 18.2328 7.23432H18.2161C18.9668 7.90833 19.5339 7.53762 19.5339 7.53762C19.5339 7.53762 19.6006 7.79038 19.5673 8.12738L19.8008 8.41383L19.9843 7.21747C19.9843 7.23432 19.3838 7.36912 19.4172 7.18377ZM15.08 4.74048C15.0466 4.75733 15.0132 4.74048 14.9966 4.72363C14.9966 4.70678 15.0132 4.67308 15.0633 4.67308C15.0967 4.67308 15.13 4.67308 15.13 4.68993C15.1467 4.70678 15.1133 4.74048 15.08 4.74048ZM15.3302 7.01526C15.2134 6.76251 15.3135 6.59401 15.1634 6.0548C15.4136 6.37496 15.3969 6.66141 15.3302 7.01526ZM15.4136 4.97639C15.4136 4.70678 15.3636 4.60568 15.3636 4.60568H15.4303C15.447 4.72363 15.4136 4.97639 15.4136 4.97639ZM15.7973 6.44236C15.6471 5.8526 15.864 5.6841 15.9975 4.97639C16.1809 5.59984 15.7973 5.8863 15.7973 6.44236ZM16.1476 7.33542V7.06582C16.3644 7.20062 16.7148 7.18377 17.1985 7.03211C16.648 7.45337 16.1476 7.33542 16.1476 7.33542Z" fill="#ED1C24"/>
<path d="M18.882 14.6982L19.0154 14.9173V17.8998L16.9636 17.765C16.8635 17.8492 16.7301 17.8829 16.5799 17.8829C16.4298 17.8829 16.2963 17.8324 16.2129 17.765L14.1444 17.8998V14.9173L14.2445 14.7319L13.9609 14.7488V18.1188L16.1462 17.9503C16.2296 18.0009 16.313 18.0346 16.3964 18.0514C16.4798 18.0683 16.5466 18.0851 16.6133 18.0851C16.68 18.0851 16.7467 18.0683 16.8301 18.0514C16.9136 18.0346 16.9803 18.0009 17.047 17.9503L19.2156 18.1188V14.7151L18.882 14.6982Z" fill="white"/>
<path d="M16.2288 17.6136C16.2788 17.681 16.3622 17.7316 16.4957 17.7653C16.479 17.5462 16.3956 17.3946 16.2454 17.2935C16.0953 17.1924 15.8784 17.1587 15.5782 17.1587C15.428 17.1587 15.2779 17.1755 15.1111 17.1924C14.9443 17.2092 14.7775 17.2429 14.594 17.2766L14.3438 17.7653L16.2288 17.6136Z" fill="white"/>
<path d="M15.562 17.0235C16.0124 17.0235 16.3127 17.1246 16.5129 17.3436V14.934C16.5129 14.6981 16.4294 14.5128 16.2793 14.3948C16.1292 14.2769 15.9123 14.2095 15.6121 14.2095C15.4619 14.2095 15.2951 14.2263 15.145 14.2432C14.9782 14.26 14.8113 14.2937 14.6445 14.3443V17.1414C14.8447 17.1077 15.0282 17.074 15.1783 17.0572C15.3285 17.0403 15.4452 17.0235 15.562 17.0235Z" fill="white"/>
<path d="M14.5119 14.4795L14.2617 14.9344V17.6473L14.5119 17.1418V14.4795Z" fill="white"/>
<path d="M17.5453 17.1587C16.9448 17.1587 16.6445 17.3609 16.6445 17.7653C16.7613 17.7484 16.8614 17.681 16.9281 17.6136L18.8131 17.7653L18.5629 17.2766C18.3627 17.2261 18.1792 17.1924 18.0124 17.1755C17.8456 17.1587 17.6788 17.1587 17.5453 17.1587Z" fill="white"/>
<path d="M18.883 14.9681L18.6328 14.4795V17.1418L18.883 17.6305V14.9681Z" fill="white"/>
<path d="M17.5631 17.0237C17.7132 17.0237 17.88 17.0406 18.0301 17.0574C18.197 17.0743 18.3471 17.108 18.4972 17.1417V14.3277C18.3137 14.294 18.1302 14.2603 17.9801 14.2266C17.83 14.2097 17.6798 14.1929 17.5464 14.1929C17.2294 14.1929 16.9959 14.2603 16.8291 14.3951C16.6956 14.4962 16.6289 14.6815 16.6289 14.9343V17.3607C16.7457 17.2428 16.8791 17.1417 17.0126 17.108C17.146 17.0574 17.3295 17.0237 17.5631 17.0237Z" fill="white"/>
<path d="M11.3908 0.0052657C11.3908 0.0052657 9.60586 -0.0789855 7.35386 0.426522C4.18438 1.15108 3 2.1284 3 2.1284V10.6715H11.3908V0.0052657Z" fill="#21409A"/>
<path d="M10.7728 0.814278C10.7728 0.814278 9.2381 0.746877 7.30305 1.18498C4.58398 1.79159 3.56641 2.61725 3.56641 2.61725V10.0651H10.7895V0.814278H10.7728Z" fill="white"/>
<path d="M7.25037 4.75732C6.53307 4.75732 5.94922 5.34708 5.94922 6.05479C5.94922 6.77935 6.53307 7.36911 7.25037 7.36911C7.95099 7.36911 8.53484 6.77935 8.53484 6.05479C8.53484 5.34708 7.95099 4.75732 7.25037 4.75732ZM7.25037 7.15006C6.66652 7.15006 6.18276 6.6614 6.18276 6.07164C6.18276 5.48188 6.66652 4.99323 7.25037 4.99323C7.83422 4.99323 8.31799 5.48188 8.31799 6.07164C8.3013 6.6614 7.83422 7.15006 7.25037 7.15006Z" fill="#21409A"/>
<path d="M9.78812 6.66151V5.48199H9.28768C9.23763 5.33034 9.18759 5.17868 9.10418 5.02703L9.47117 4.65633L8.6371 3.81382L8.27011 4.16767C8.13666 4.08342 7.98652 4.03287 7.81971 3.98232V3.45996H6.65201V3.98232C6.50187 4.03287 6.35174 4.08342 6.20161 4.16767L5.83461 3.81382L5.00054 4.65633L5.36753 5.02703C5.28413 5.17868 5.23408 5.31349 5.18404 5.48199H4.68359V6.66151H5.18404C5.23408 6.81316 5.30081 6.96481 5.36753 7.11646L5.00054 7.48717L5.83461 8.32968L6.20161 7.95897C6.33506 8.04322 6.48519 8.09378 6.65201 8.14433V8.66668H7.81971V8.14433C7.96984 8.09378 8.11997 8.04322 8.27011 7.95897L8.6371 8.32968L9.47117 7.48717L9.10418 7.11646C9.18759 6.98166 9.23763 6.83001 9.28768 6.66151H9.78812ZM9.0875 6.50985C9.03745 6.71206 8.97073 6.89741 8.87064 7.06591L8.8206 7.15016L9.13754 7.47032L8.6371 7.97582L8.30347 7.65567L8.22006 7.70622C8.05325 7.80732 7.86975 7.89157 7.68626 7.92527L7.60285 7.94212V8.39708H6.88555V7.94212L6.80214 7.92527C6.60196 7.87472 6.41847 7.80732 6.25165 7.70622L6.16824 7.65567L5.8513 7.97582L5.33417 7.47032L5.65112 7.15016L5.60107 7.06591C5.50099 6.89741 5.41758 6.71206 5.38421 6.50985L5.36753 6.4256H4.91713V5.70104H5.36753L5.38421 5.61679C5.43426 5.41459 5.50099 5.22924 5.60107 5.06073L5.65112 4.97648L5.33417 4.65633L5.8513 4.15082L6.16824 4.47098L6.25165 4.42042C6.41847 4.31932 6.60196 4.23507 6.80214 4.18452L6.88555 4.16767V3.71271H7.60285V4.18452L7.68626 4.20137C7.86975 4.25192 8.05325 4.31932 8.22006 4.43727L8.30347 4.48783L8.6371 4.16767L9.13754 4.67318L8.8206 4.99333L8.87064 5.07758C8.97073 5.24609 9.05414 5.43144 9.0875 5.63364L9.10418 5.71789H9.55458V6.44245H9.10418L9.0875 6.50985Z" fill="#21409A"/>
</g>
</svg>
